<svg width="1210" height="626" viewBox="0 0 1210 626">
<g transform="translate(.5 .5)">
<g>
<path d="M20 97v20m10 -20v20m-10 -10h20"></path>
</g>
<path d="M40 107h10"></path>
<g class="terminal ">
<path d="M50 107h0"></path>
<path d="M118 107h0"></path>
<rect x="50" y="96" width="68" height="22" rx="10" ry="10"></rect>
<text x="84" y="111">search</text>
</g>
<path d="M118 107h10"></path>
<path d="M128 107h10"></path>
<g class="non-terminal ">
<path d="M138 107h0"></path>
<path d="M286 107h0"></path>
<rect x="138" y="96" width="148" height="22"></rect>
<text x="212" y="111">Compartment OCID</text>
</g>
<path d="M286 107h10"></path>
<path d="M296 107h10"></path>
<g>
<path d="M306 107h0"></path>
<path d="M306 107h10"></path>
<g>
<path d="M316 107h10"></path>
<path d="M1140 271h10"></path>
<rect x="326" y="36" width="814" height="328" rx="10" ry="10" class="group-box"></rect>
<g>
<path d="M326 107h10"></path>
<path d="M336 107h10"></path>
<g>
<path d="M346 107h133"></path>
<path d="M987 107h133"></path>
<path d="M479 107a10 10 0 0 0 10 -10v-31a10 10 0 0 1 10 -10"></path>
<g>
<path d="M499 56h468"></path>
</g>
<path d="M967 56a10 10 0 0 1 10 10v31a10 10 0 0 0 10 10"></path>
<path d="M479 107h20"></path>
<g>
<path d="M499 107h0"></path>
<path d="M967 107h0"></path>
<g class="terminal ">
<path d="M499 107h0"></path>
<path d="M527 107h0"></path>
<rect x="499" y="96" width="28" height="22" rx="10" ry="10"></rect>
<text x="513" y="111">/</text>
</g>
<path d="M527 107h10"></path>
<g>
<path d="M537 107h0"></path>
<path d="M709 107h0"></path>
<path d="M537 107h20"></path>
<g class="non-terminal ">
<path d="M557 107h0"></path>
<path d="M689 107h0"></path>
<rect x="557" y="96" width="132" height="22"></rect>
<text x="623" y="111">Log Group Name</text>
</g>
<path d="M689 107h20"></path>
<path d="M537 107a10 10 0 0 1 10 10v22a10 10 0 0 0 10 10"></path>
<g class="non-terminal ">
<path d="M557 149h0"></path>
<path d="M689 149h0"></path>
<rect x="557" y="138" width="132" height="22"></rect>
<text x="623" y="153">Log Group OCID</text>
</g>
<path d="M689 149a10 10 0 0 0 10 -10v-22a10 10 0 0 1 10 -10"></path>
</g>
<g>
<path d="M709 107h0"></path>
<path d="M967 107h0"></path>
<path d="M709 107a10 10 0 0 0 10 -10v-11a10 10 0 0 1 10 -10"></path>
<g>
<path d="M729 76h218"></path>
</g>
<path d="M947 76a10 10 0 0 1 10 10v11a10 10 0 0 0 10 10"></path>
<path d="M709 107h20"></path>
<g>
<path d="M729 107h0"></path>
<path d="M947 107h0"></path>
<g class="terminal ">
<path d="M729 107h0"></path>
<path d="M757 107h0"></path>
<rect x="729" y="96" width="28" height="22" rx="10" ry="10"></rect>
<text x="743" y="111">/</text>
</g>
<path d="M757 107h10"></path>
<g>
<path d="M767 107h0"></path>
<path d="M947 107h0"></path>
<path d="M767 107h20"></path>
<g class="non-terminal ">
<path d="M787 107h0"></path>
<path d="M927 107h0"></path>
<rect x="787" y="96" width="140" height="22"></rect>
<text x="857" y="111">Log Object Name</text>
</g>
<path d="M927 107h20"></path>
<path d="M767 107a10 10 0 0 1 10 10v22a10 10 0 0 0 10 10"></path>
<g class="non-terminal ">
<path d="M787 149h0"></path>
<path d="M927 149h0"></path>
<rect x="787" y="138" width="140" height="22"></rect>
<text x="857" y="153">Log Object OCID</text>
</g>
<path d="M927 149a10 10 0 0 0 10 -10v-22a10 10 0 0 1 10 -10"></path>
</g>
</g>
<path d="M947 107h20"></path>
</g>
</g>
<path d="M967 107h20"></path>
</g>
<path d="M1120 107a10 10 0 0 1 10 10v53a10 10 0 0 1 -10 10h-774a10 10 0 0 0 -10 10v71a10 10 0 0 0 10 10"></path>
<g>
<path d="M346 271h0"></path>
<path d="M1120 271h0"></path>
<path d="M346 271a10 10 0 0 0 10 -10v-51a10 10 0 0 1 10 -10"></path>
<g>
<path d="M366 200h734"></path>
</g>
<path d="M1100 200a10 10 0 0 1 10 10v51a10 10 0 0 0 10 10"></path>
<path d="M346 271h20"></path>
<g>
<path d="M366 271h0"></path>
<path d="M1100 271h0"></path>
<path d="M366 271h10"></path>
<g>
<path d="M376 271h0"></path>
<path d="M1090 271h0"></path>
<g class="terminal ">
<path d="M376 271h0"></path>
<path d="M404 271h0"></path>
<rect x="376" y="260" width="28" height="22" rx="10" ry="10"></rect>
<text x="390" y="275">,</text>
</g>
<path d="M404 271h10"></path>
<path d="M414 271h10"></path>
<g class="non-terminal ">
<path d="M424 271h0"></path>
<path d="M572 271h0"></path>
<rect x="424" y="260" width="148" height="22"></rect>
<text x="498" y="275">Compartment OCID</text>
</g>
<path d="M572 271h10"></path>
<g>
<path d="M582 271h0"></path>
<path d="M1090 271h0"></path>
<path d="M582 271a10 10 0 0 0 10 -10v-31a10 10 0 0 1 10 -10"></path>
<g>
<path d="M602 220h468"></path>
</g>
<path d="M1070 220a10 10 0 0 1 10 10v31a10 10 0 0 0 10 10"></path>
<path d="M582 271h20"></path>
<g>
<path d="M602 271h0"></path>
<path d="M1070 271h0"></path>
<g class="terminal ">
<path d="M602 271h0"></path>
<path d="M630 271h0"></path>
<rect x="602" y="260" width="28" height="22" rx="10" ry="10"></rect>
<text x="616" y="275">/</text>
</g>
<path d="M630 271h10"></path>
<g>
<path d="M640 271h0"></path>
<path d="M812 271h0"></path>
<path d="M640 271h20"></path>
<g class="non-terminal ">
<path d="M660 271h0"></path>
<path d="M792 271h0"></path>
<rect x="660" y="260" width="132" height="22"></rect>
<text x="726" y="275">Log Group Name</text>
</g>
<path d="M792 271h20"></path>
<path d="M640 271a10 10 0 0 1 10 10v22a10 10 0 0 0 10 10"></path>
<g class="non-terminal ">
<path d="M660 313h0"></path>
<path d="M792 313h0"></path>
<rect x="660" y="302" width="132" height="22"></rect>
<text x="726" y="317">Log Group OCID</text>
</g>
<path d="M792 313a10 10 0 0 0 10 -10v-22a10 10 0 0 1 10 -10"></path>
</g>
<g>
<path d="M812 271h0"></path>
<path d="M1070 271h0"></path>
<path d="M812 271a10 10 0 0 0 10 -10v-11a10 10 0 0 1 10 -10"></path>
<g>
<path d="M832 240h218"></path>
</g>
<path d="M1050 240a10 10 0 0 1 10 10v11a10 10 0 0 0 10 10"></path>
<path d="M812 271h20"></path>
<g>
<path d="M832 271h0"></path>
<path d="M1050 271h0"></path>
<g class="terminal ">
<path d="M832 271h0"></path>
<path d="M860 271h0"></path>
<rect x="832" y="260" width="28" height="22" rx="10" ry="10"></rect>
<text x="846" y="275">/</text>
</g>
<path d="M860 271h10"></path>
<g>
<path d="M870 271h0"></path>
<path d="M1050 271h0"></path>
<path d="M870 271h20"></path>
<g class="non-terminal ">
<path d="M890 271h0"></path>
<path d="M1030 271h0"></path>
<rect x="890" y="260" width="140" height="22"></rect>
<text x="960" y="275">Log Object Name</text>
</g>
<path d="M1030 271h20"></path>
<path d="M870 271a10 10 0 0 1 10 10v22a10 10 0 0 0 10 10"></path>
<g class="non-terminal ">
<path d="M890 313h0"></path>
<path d="M1030 313h0"></path>
<rect x="890" y="302" width="140" height="22"></rect>
<text x="960" y="317">Log Object OCID</text>
</g>
<path d="M1030 313a10 10 0 0 0 10 -10v-22a10 10 0 0 1 10 -10"></path>
</g>
</g>
<path d="M1050 271h20"></path>
</g>
</g>
<path d="M1070 271h20"></path>
</g>
</g>
<path d="M1090 271h10"></path>
<path d="M376 271a10 10 0 0 0 -10 10v53a10 10 0 0 0 10 10"></path>
<g>
<path d="M376 344h714"></path>
</g>
<path d="M1090 344a10 10 0 0 0 10 -10v-53a10 10 0 0 0 -10 -10"></path>
</g>
<path d="M1100 271h20"></path>
</g>
<path d="M1120 271h10"></path>
<path d="M1130 271h10"></path>
</g>
<g class="comment ">
<path d="M326 28h0"></path>
<path d="M791 28h0"></path>
<text x="558.5" y="33" class="comment">Search scope - one or more paths with a minimum Compartment scope</text>
</g>
</g>
<path d="M1150 271a10 10 0 0 1 10 10v93a10 10 0 0 1 -10 10h-834a10 10 0 0 0 -10 10v47a10 10 0 0 0 10 10"></path>
<g>
<path d="M316 451h201"></path>
<path d="M949 451h201"></path>
<rect x="517" y="420" width="432" height="186" rx="10" ry="10" class="group-box"></rect>
<g>
<path d="M517 451h0"></path>
<path d="M949 451h0"></path>
<path d="M517 451h20"></path>
<g>
<path d="M537 451h58"></path>
<path d="M871 451h58"></path>
<g class="terminal ">
<path d="M595 451h0"></path>
<path d="M623 451h0"></path>
<rect x="595" y="440" width="28" height="22" rx="10" ry="10"></rect>
<text x="609" y="455">|</text>
</g>
<path d="M623 451h10"></path>
<path d="M633 451h10"></path>
<g class="terminal ">
<path d="M643 451h0"></path>
<path d="M711 451h0"></path>
<rect x="643" y="440" width="68" height="22" rx="10" ry="10"></rect>
<text x="677" y="455">select</text>
</g>
<path d="M711 451h10"></path>
<path d="M721 451h10"></path>
<g class="non-terminal ">
<path d="M731 451h0"></path>
<path d="M799 451h0"></path>
<rect x="731" y="440" width="68" height="22"></rect>
<text x="765" y="455">entity</text>
</g>
<path d="M799 451h10"></path>
<path d="M809 451h10"></path>
<g class="terminal ">
<path d="M819 451h0"></path>
<path d="M871 451h0"></path>
<rect x="819" y="440" width="52" height="22" rx="10" ry="10"></rect>
<text x="845" y="455">name</text>
</g>
</g>
<path d="M929 451h20"></path>
<path d="M517 451a10 10 0 0 1 10 10v42a10 10 0 0 0 10 10"></path>
<g>
<path d="M537 513h0"></path>
<path d="M929 513h0"></path>
<g class="terminal ">
<path d="M537 513h0"></path>
<path d="M565 513h0"></path>
<rect x="537" y="502" width="28" height="22" rx="10" ry="10"></rect>
<text x="551" y="517">|</text>
</g>
<path d="M565 513h10"></path>
<g>
<path d="M575 513h0"></path>
<path d="M675 513h0"></path>
<path d="M575 513a10 10 0 0 0 10 -10v-11a10 10 0 0 1 10 -10"></path>
<g>
<path d="M595 482h60"></path>
</g>
<path d="M655 482a10 10 0 0 1 10 10v11a10 10 0 0 0 10 10"></path>
<path d="M575 513h20"></path>
<g class="terminal ">
<path d="M595 513h0"></path>
<path d="M655 513h0"></path>
<rect x="595" y="502" width="60" height="22" rx="10" ry="10"></rect>
<text x="625" y="517">where</text>
</g>
<path d="M655 513h20"></path>
</g>
<path d="M675 513h10"></path>
<g class="non-terminal ">
<path d="M685 513h0"></path>
<path d="M745 513h0"></path>
<rect x="685" y="502" width="60" height="22"></rect>
<text x="715" y="517">value</text>
</g>
<path d="M745 513h10"></path>
<path d="M755 513h10"></path>
<g class="terminal ">
<path d="M765 513h0"></path>
<path d="M849 513h0"></path>
<rect x="765" y="502" width="84" height="22" rx="10" ry="10"></rect>
<text x="807" y="517">operator</text>
</g>
<path d="M849 513h10"></path>
<path d="M859 513h10"></path>
<g class="non-terminal ">
<path d="M869 513h0"></path>
<path d="M929 513h0"></path>
<rect x="869" y="502" width="60" height="22"></rect>
<text x="899" y="517">value</text>
</g>
</g>
<path d="M929 513a10 10 0 0 0 10 -10v-42a10 10 0 0 1 10 -10"></path>
<path d="M517 451a10 10 0 0 1 10 10v84a10 10 0 0 0 10 10"></path>
<g>
<path d="M537 555h30"></path>
<path d="M899 555h30"></path>
<g class="terminal ">
<path d="M567 555h0"></path>
<path d="M595 555h0"></path>
<rect x="567" y="544" width="28" height="22" rx="10" ry="10"></rect>
<text x="581" y="559">|</text>
</g>
<path d="M595 555h10"></path>
<path d="M605 555h10"></path>
<g class="terminal ">
<path d="M615 555h0"></path>
<path d="M659 555h0"></path>
<rect x="615" y="544" width="44" height="22" rx="10" ry="10"></rect>
<text x="637" y="559">top</text>
</g>
<path d="M659 555h10"></path>
<path d="M669 555h10"></path>
<g class="non-terminal ">
<path d="M679 555h0"></path>
<path d="M747 555h0"></path>
<rect x="679" y="544" width="68" height="22"></rect>
<text x="713" y="559">number</text>
</g>
<path d="M747 555h10"></path>
<path d="M757 555h10"></path>
<g class="terminal ">
<path d="M767 555h0"></path>
<path d="M803 555h0"></path>
<rect x="767" y="544" width="36" height="22" rx="10" ry="10"></rect>
<text x="785" y="559">by</text>
</g>
<path d="M803 555h10"></path>
<path d="M813 555h10"></path>
<g class="non-terminal ">
<path d="M823 555h0"></path>
<path d="M899 555h0"></path>
<rect x="823" y="544" width="76" height="22"></rect>
<text x="861" y="559">sort id</text>
</g>
</g>
<path d="M929 555a10 10 0 0 0 10 -10v-84a10 10 0 0 1 10 -10"></path>
<path d="M517 451a10 10 0 0 1 10 10v115a10 10 0 0 0 10 10"></path>
<g>
<path d="M537 586h392"></path>
</g>
<path d="M929 586a10 10 0 0 0 10 -10v-115a10 10 0 0 1 10 -10"></path>
</g>
<g class="comment ">
<path d="M517 412h0"></path>
<path d="M604 412h0"></path>
<text x="560.5" y="417" class="comment">Conditional</text>
</g>
</g>
<path d="M1150 451h10"></path>
<path d="M1160 451h0"></path>
</g>
<path d="M1160 451h10"></path>
<path d="M 1170 451 h 20 m -10 -10 v 20 m 10 -20 v 20"></path>
</g>
</svg>
